<mxfile host="65bd71144e">
    <diagram id="assUtNprCaR-UZ5o1wzm" name="Landing Page">
        <mxGraphModel dx="1962" dy="705" grid="1" gridSize="10" guides="1" tooltips="1" connect="1" arrows="1" fold="1" page="1" pageScale="1" pageWidth="850" pageHeight="1100" math="0" shadow="0">
            <root>
                <mxCell id="0"/>
                <mxCell id="1" parent="0"/>
                <mxCell id="uIA3vEWL_RS5BZarj4Si-24" value="" style="rounded=0;whiteSpace=wrap;html=1;pointerEvents=0;fontFamily=Helvetica;fontSize=8;fontColor=#ffffff;fillColor=#76608a;strokeColor=#432D57;" vertex="1" parent="1">
                    <mxGeometry x="-850" width="400" height="600" as="geometry"/>
                </mxCell>
                <mxCell id="4" value="" style="group" vertex="1" connectable="0" parent="1">
                    <mxGeometry x="-150" y="40" width="240" height="350" as="geometry"/>
                </mxCell>
                <mxCell id="uIA3vEWL_RS5BZarj4Si-23" value="" style="rounded=0;whiteSpace=wrap;html=1;pointerEvents=0;fontFamily=Helvetica;fontSize=8;fontColor=#ffffff;fillColor=#6d8764;strokeColor=#3A5431;" vertex="1" parent="1">
                    <mxGeometry x="-850" width="400" height="40" as="geometry"/>
                </mxCell>
                <mxCell id="uIA3vEWL_RS5BZarj4Si-25" value="ToTask" style="text;strokeColor=none;fillColor=none;html=1;fontSize=24;fontStyle=1;verticalAlign=middle;align=center;" vertex="1" parent="1">
                    <mxGeometry x="-848" width="100" height="40" as="geometry"/>
                </mxCell>
                <mxCell id="uIA3vEWL_RS5BZarj4Si-33" value="A Photo?" style="ellipse;whiteSpace=wrap;html=1;aspect=fixed;pointerEvents=0;fontFamily=Helvetica;fontSize=17;fontColor=default;fillColor=default;gradientColor=none;strokeWidth=4;" vertex="1" parent="1">
                    <mxGeometry x="-820" y="80" width="190" height="190" as="geometry"/>
                </mxCell>
                <mxCell id="HTqH87q0Vn6_Fq0fCCXO-6" value="Sign-Up" style="rounded=1;whiteSpace=wrap;html=1;strokeWidth=2;fillWeight=4;hachureGap=8;hachureAngle=45;fillColor=#1ba1e2;sketch=1;pointerEvents=0;fontFamily=Helvetica;fontSize=17;fontColor=default;" vertex="1" parent="1">
                    <mxGeometry x="-610" y="90" width="120" height="60" as="geometry"/>
                </mxCell>
                <mxCell id="HTqH87q0Vn6_Fq0fCCXO-7" value="Login" style="rounded=1;whiteSpace=wrap;html=1;strokeWidth=2;fillWeight=4;hachureGap=8;hachureAngle=45;fillColor=#1ba1e2;sketch=1;pointerEvents=0;fontFamily=Helvetica;fontSize=17;fontColor=default;" vertex="1" parent="1">
                    <mxGeometry x="-610" y="173" width="120" height="60" as="geometry"/>
                </mxCell>
            </root>
        </mxGraphModel>
    </diagram>
    <diagram name="Homepage" id="5GeU1mVg2XypLVcfZGmt">
        <mxGraphModel dx="2029" dy="748" grid="1" gridSize="10" guides="1" tooltips="1" connect="1" arrows="1" fold="1" page="1" pageScale="1" pageWidth="850" pageHeight="1100" math="0" shadow="0">
            <root>
                <mxCell id="5RY9TIczDvU4vU2tA90P-0"/>
                <mxCell id="5RY9TIczDvU4vU2tA90P-1" parent="5RY9TIczDvU4vU2tA90P-0"/>
                <mxCell id="5RY9TIczDvU4vU2tA90P-2" value="" style="rounded=0;whiteSpace=wrap;html=1;pointerEvents=0;fontFamily=Helvetica;fontSize=8;fontColor=#ffffff;fillColor=#76608a;strokeColor=#432D57;" vertex="1" parent="5RY9TIczDvU4vU2tA90P-1">
                    <mxGeometry x="-850" width="400" height="600" as="geometry"/>
                </mxCell>
                <mxCell id="9gpxbDtCjFklQvV2uzeE-7" value="" style="rounded=0;whiteSpace=wrap;html=1;pointerEvents=0;fontFamily=Helvetica;fontSize=8;fontColor=#ffffff;fillColor=#e51400;strokeColor=#B20000;" vertex="1" parent="5RY9TIczDvU4vU2tA90P-1">
                    <mxGeometry x="-850" y="40" width="400" height="60" as="geometry"/>
                </mxCell>
                <mxCell id="5RY9TIczDvU4vU2tA90P-3" value="" style="group" vertex="1" connectable="0" parent="5RY9TIczDvU4vU2tA90P-1">
                    <mxGeometry x="-150" y="40" width="240" height="350" as="geometry"/>
                </mxCell>
                <mxCell id="5RY9TIczDvU4vU2tA90P-4" value="" style="rounded=0;whiteSpace=wrap;html=1;pointerEvents=0;fontFamily=Helvetica;fontSize=8;fontColor=#ffffff;fillColor=#6d8764;strokeColor=#3A5431;" vertex="1" parent="5RY9TIczDvU4vU2tA90P-1">
                    <mxGeometry x="-850" width="400" height="40" as="geometry"/>
                </mxCell>
                <mxCell id="5RY9TIczDvU4vU2tA90P-5" value="ToTask" style="text;strokeColor=none;fillColor=none;html=1;fontSize=24;fontStyle=1;verticalAlign=middle;align=center;" vertex="1" parent="5RY9TIczDvU4vU2tA90P-1">
                    <mxGeometry x="-848" width="100" height="40" as="geometry"/>
                </mxCell>
                <mxCell id="5RY9TIczDvU4vU2tA90P-11" value="Some Image" style="ellipse;whiteSpace=wrap;html=1;aspect=fixed;pointerEvents=0;fontFamily=Helvetica;fontSize=17;fontColor=default;fillColor=default;gradientColor=none;strokeWidth=4;shadow=1;sketch=0;" vertex="1" parent="5RY9TIczDvU4vU2tA90P-1">
                    <mxGeometry x="-820" y="150" width="60" height="60" as="geometry"/>
                </mxCell>
                <mxCell id="5RY9TIczDvU4vU2tA90P-7" value="&lt;font style=&quot;font-size: 17px&quot;&gt;Home&lt;/font&gt;" style="text;strokeColor=none;fillColor=none;html=1;fontSize=24;fontStyle=1;verticalAlign=middle;align=center;" vertex="1" parent="5RY9TIczDvU4vU2tA90P-1">
                    <mxGeometry x="-673" y="10" width="54" height="20" as="geometry"/>
                </mxCell>
                <mxCell id="5RY9TIczDvU4vU2tA90P-8" value="&lt;font style=&quot;font-size: 17px&quot;&gt;Profile&lt;/font&gt;" style="text;strokeColor=none;fillColor=none;html=1;fontSize=24;fontStyle=1;verticalAlign=middle;align=center;" vertex="1" parent="5RY9TIczDvU4vU2tA90P-1">
                    <mxGeometry x="-617" y="10" width="54" height="20" as="geometry"/>
                </mxCell>
                <mxCell id="5RY9TIczDvU4vU2tA90P-9" value="&lt;font style=&quot;font-size: 17px&quot;&gt;Task&lt;/font&gt;" style="text;strokeColor=none;fillColor=none;html=1;fontSize=24;fontStyle=1;verticalAlign=middle;align=center;" vertex="1" parent="5RY9TIczDvU4vU2tA90P-1">
                    <mxGeometry x="-566" y="10" width="54" height="20" as="geometry"/>
                </mxCell>
                <mxCell id="5RY9TIczDvU4vU2tA90P-10" value="&lt;font style=&quot;font-size: 17px&quot;&gt;Logout&lt;/font&gt;" style="text;strokeColor=none;fillColor=none;html=1;fontSize=24;fontStyle=1;verticalAlign=middle;align=center;" vertex="1" parent="5RY9TIczDvU4vU2tA90P-1">
                    <mxGeometry x="-513" y="10" width="54" height="20" as="geometry"/>
                </mxCell>
                <mxCell id="9gpxbDtCjFklQvV2uzeE-1" value="&lt;font style=&quot;font-size: 17px&quot;&gt;Latest Tasks for &amp;lt;&amp;lt;Tag&amp;gt;&amp;gt;&lt;/font&gt;" style="text;strokeColor=none;fillColor=none;html=1;fontSize=24;fontStyle=1;verticalAlign=middle;align=center;" vertex="1" parent="5RY9TIczDvU4vU2tA90P-1">
                    <mxGeometry x="-710" y="240" width="217" height="20" as="geometry"/>
                </mxCell>
                <mxCell id="9gpxbDtCjFklQvV2uzeE-2" value="&lt;font style=&quot;font-size: 17px&quot;&gt;Welcome Back, &amp;lt;&amp;lt;User&amp;gt;&amp;gt;&lt;/font&gt;" style="text;strokeColor=none;fillColor=none;html=1;fontSize=24;fontStyle=1;verticalAlign=middle;align=center;" vertex="1" parent="5RY9TIczDvU4vU2tA90P-1">
                    <mxGeometry x="-833" y="50" width="214" height="20" as="geometry"/>
                </mxCell>
                <mxCell id="9gpxbDtCjFklQvV2uzeE-4" value="&lt;font style=&quot;font-size: 17px&quot;&gt;New tasks assigned to you&lt;/font&gt;" style="text;strokeColor=none;fillColor=none;html=1;fontSize=24;fontStyle=1;verticalAlign=middle;align=center;" vertex="1" parent="5RY9TIczDvU4vU2tA90P-1">
                    <mxGeometry x="-710" y="120" width="214" height="20" as="geometry"/>
                </mxCell>
                <mxCell id="9gpxbDtCjFklQvV2uzeE-6" value="&lt;ul&gt;&lt;li&gt;Value 1&lt;/li&gt;&lt;li&gt;Value 2&lt;/li&gt;&lt;li&gt;Value 3&lt;/li&gt;&lt;/ul&gt;" style="text;strokeColor=none;fillColor=none;html=1;whiteSpace=wrap;verticalAlign=middle;overflow=hidden;shadow=1;sketch=0;pointerEvents=0;fontFamily=Helvetica;fontSize=17;fontColor=default;" vertex="1" parent="5RY9TIczDvU4vU2tA90P-1">
                    <mxGeometry x="-710" y="120" width="100" height="80" as="geometry"/>
                </mxCell>
            </root>
        </mxGraphModel>
    </diagram>
    <diagram name="Profile" id="HfID4VALRrhbRm-kBFQh">
        <mxGraphModel dx="2542" dy="2173" grid="1" gridSize="10" guides="1" tooltips="1" connect="1" arrows="1" fold="1" page="1" pageScale="1" pageWidth="850" pageHeight="1100" math="0" shadow="0">
            <root>
                <mxCell id="jHdx_IfH1JixQJxeTe31-0"/>
                <mxCell id="jHdx_IfH1JixQJxeTe31-1" parent="jHdx_IfH1JixQJxeTe31-0"/>
                <mxCell id="jHdx_IfH1JixQJxeTe31-2" value="" style="rounded=0;whiteSpace=wrap;html=1;pointerEvents=0;fontFamily=Helvetica;fontSize=8;fontColor=#ffffff;fillColor=#76608a;strokeColor=#432D57;" vertex="1" parent="jHdx_IfH1JixQJxeTe31-1">
                    <mxGeometry x="-850" width="400" height="600" as="geometry"/>
                </mxCell>
                <mxCell id="jHdx_IfH1JixQJxeTe31-4" value="" style="group" vertex="1" connectable="0" parent="jHdx_IfH1JixQJxeTe31-1">
                    <mxGeometry x="-150" y="40" width="240" height="350" as="geometry"/>
                </mxCell>
                <mxCell id="jHdx_IfH1JixQJxeTe31-5" value="" style="rounded=0;whiteSpace=wrap;html=1;pointerEvents=0;fontFamily=Helvetica;fontSize=8;fontColor=#ffffff;fillColor=#6d8764;strokeColor=#3A5431;" vertex="1" parent="jHdx_IfH1JixQJxeTe31-1">
                    <mxGeometry x="-850" width="400" height="40" as="geometry"/>
                </mxCell>
                <mxCell id="jHdx_IfH1JixQJxeTe31-6" value="ToTask" style="text;strokeColor=none;fillColor=none;html=1;fontSize=24;fontStyle=1;verticalAlign=middle;align=center;" vertex="1" parent="jHdx_IfH1JixQJxeTe31-1">
                    <mxGeometry x="-848" width="100" height="40" as="geometry"/>
                </mxCell>
                <mxCell id="TdaO7mZSMt4dS57k86jl-1" value="" style="rounded=0;whiteSpace=wrap;html=1;shadow=1;sketch=0;pointerEvents=0;fontFamily=Helvetica;fontSize=17;fontColor=default;strokeWidth=4;fillColor=default;gradientColor=none;" vertex="1" parent="jHdx_IfH1JixQJxeTe31-1">
                    <mxGeometry x="-817" y="70" width="280" height="320" as="geometry"/>
                </mxCell>
                <mxCell id="jHdx_IfH1JixQJxeTe31-7" value="Your Face&lt;br&gt;Here" style="ellipse;whiteSpace=wrap;html=1;aspect=fixed;pointerEvents=0;fontFamily=Helvetica;fontSize=17;fontColor=default;fillColor=default;gradientColor=none;strokeWidth=4;shadow=1;sketch=0;" vertex="1" parent="jHdx_IfH1JixQJxeTe31-1">
                    <mxGeometry x="-835" y="50" width="80" height="80" as="geometry"/>
                </mxCell>
                <mxCell id="jHdx_IfH1JixQJxeTe31-8" value="&lt;font style=&quot;font-size: 17px&quot;&gt;Home&lt;/font&gt;" style="text;strokeColor=none;fillColor=none;html=1;fontSize=24;fontStyle=1;verticalAlign=middle;align=center;" vertex="1" parent="jHdx_IfH1JixQJxeTe31-1">
                    <mxGeometry x="-710" y="10" width="54" height="20" as="geometry"/>
                </mxCell>
                <mxCell id="jHdx_IfH1JixQJxeTe31-9" value="&lt;font style=&quot;font-size: 17px&quot;&gt;Profile&lt;/font&gt;" style="text;strokeColor=none;fillColor=none;html=1;fontSize=24;fontStyle=1;verticalAlign=middle;align=center;" vertex="1" parent="jHdx_IfH1JixQJxeTe31-1">
                    <mxGeometry x="-654" y="10" width="54" height="20" as="geometry"/>
                </mxCell>
                <mxCell id="jHdx_IfH1JixQJxeTe31-10" value="&lt;font style=&quot;font-size: 17px&quot;&gt;Task&lt;/font&gt;" style="text;strokeColor=none;fillColor=none;html=1;fontSize=24;fontStyle=1;verticalAlign=middle;align=center;" vertex="1" parent="jHdx_IfH1JixQJxeTe31-1">
                    <mxGeometry x="-603" y="10" width="54" height="20" as="geometry"/>
                </mxCell>
                <mxCell id="jHdx_IfH1JixQJxeTe31-11" value="&lt;font style=&quot;font-size: 17px&quot;&gt;Logout&lt;/font&gt;" style="text;strokeColor=none;fillColor=none;html=1;fontSize=24;fontStyle=1;verticalAlign=middle;align=center;" vertex="1" parent="jHdx_IfH1JixQJxeTe31-1">
                    <mxGeometry x="-550" y="10" width="54" height="20" as="geometry"/>
                </mxCell>
                <mxCell id="TdaO7mZSMt4dS57k86jl-2" value="&lt;font style=&quot;font-size: 17px&quot;&gt;Hi, &amp;lt;&amp;lt;User&amp;gt;&amp;gt;!&lt;/font&gt;" style="text;strokeColor=none;fillColor=none;html=1;fontSize=24;fontStyle=1;verticalAlign=middle;align=center;shadow=1;sketch=0;pointerEvents=0;fontFamily=Helvetica;fontColor=default;" vertex="1" parent="jHdx_IfH1JixQJxeTe31-1">
                    <mxGeometry x="-748" y="75" width="180" height="30" as="geometry"/>
                </mxCell>
                <mxCell id="TdaO7mZSMt4dS57k86jl-3" value="&lt;span style=&quot;font-size: 17px&quot;&gt;Posted Tasks&lt;/span&gt;" style="text;strokeColor=none;fillColor=none;html=1;fontSize=24;fontStyle=1;verticalAlign=middle;align=center;shadow=1;sketch=0;pointerEvents=0;fontFamily=Helvetica;fontColor=default;" vertex="1" parent="jHdx_IfH1JixQJxeTe31-1">
                    <mxGeometry x="-790" y="185" width="91" height="30" as="geometry"/>
                </mxCell>
                <mxCell id="TdaO7mZSMt4dS57k86jl-4" value="&lt;span style=&quot;font-size: 17px&quot;&gt;Assigned Tasks&lt;/span&gt;" style="text;strokeColor=none;fillColor=none;html=1;fontSize=24;fontStyle=1;verticalAlign=middle;align=center;shadow=1;sketch=0;pointerEvents=0;fontFamily=Helvetica;fontColor=default;" vertex="1" parent="jHdx_IfH1JixQJxeTe31-1">
                    <mxGeometry x="-660" y="185" width="91" height="30" as="geometry"/>
                </mxCell>
                <mxCell id="TdaO7mZSMt4dS57k86jl-5" value="&lt;ul&gt;&lt;li&gt;Value 1&lt;/li&gt;&lt;li&gt;Value 2&lt;/li&gt;&lt;li&gt;Value 3&lt;/li&gt;&lt;/ul&gt;" style="text;strokeColor=none;fillColor=none;html=1;whiteSpace=wrap;verticalAlign=middle;overflow=hidden;shadow=1;sketch=0;pointerEvents=0;fontFamily=Helvetica;fontSize=17;fontColor=default;" vertex="1" parent="jHdx_IfH1JixQJxeTe31-1">
                    <mxGeometry x="-799" y="201" width="100" height="80" as="geometry"/>
                </mxCell>
                <mxCell id="TdaO7mZSMt4dS57k86jl-6" value="&lt;ul&gt;&lt;li&gt;Value 1&lt;/li&gt;&lt;li&gt;Value 2&lt;/li&gt;&lt;li&gt;Value 3&lt;/li&gt;&lt;/ul&gt;" style="text;strokeColor=none;fillColor=none;html=1;whiteSpace=wrap;verticalAlign=middle;overflow=hidden;shadow=1;sketch=0;pointerEvents=0;fontFamily=Helvetica;fontSize=17;fontColor=default;" vertex="1" parent="jHdx_IfH1JixQJxeTe31-1">
                    <mxGeometry x="-676" y="199" width="100" height="80" as="geometry"/>
                </mxCell>
                <mxCell id="fTmQCSsfnubdYVstmMUa-0" value="" style="shape=table;html=1;whiteSpace=wrap;startSize=0;container=1;collapsible=0;childLayout=tableLayout;columnLines=0;rowLines=0;shadow=1;sketch=0;pointerEvents=0;fontFamily=Helvetica;fontSize=17;fontColor=default;strokeWidth=3;fillColor=default;gradientColor=none;" vertex="1" parent="jHdx_IfH1JixQJxeTe31-1">
                    <mxGeometry x="-736" y="105" width="186" height="60" as="geometry"/>
                </mxCell>
                <mxCell id="fTmQCSsfnubdYVstmMUa-1" value="" style="shape=partialRectangle;html=1;whiteSpace=wrap;collapsible=0;dropTarget=0;pointerEvents=0;fillColor=none;top=0;left=0;bottom=0;right=0;points=[[0,0.5],[1,0.5]];portConstraint=eastwest;shadow=1;sketch=0;fontFamily=Helvetica;fontSize=17;fontColor=default;strokeWidth=4;" vertex="1" parent="fTmQCSsfnubdYVstmMUa-0">
                    <mxGeometry width="186" height="20" as="geometry"/>
                </mxCell>
                <mxCell id="fTmQCSsfnubdYVstmMUa-2" value="Value 1" style="shape=partialRectangle;html=1;whiteSpace=wrap;connectable=0;fillColor=none;top=0;left=0;bottom=0;right=0;overflow=hidden;pointerEvents=1;shadow=1;sketch=0;fontFamily=Helvetica;fontSize=17;fontColor=default;strokeWidth=4;" vertex="1" parent="fTmQCSsfnubdYVstmMUa-1">
                    <mxGeometry width="62" height="20" as="geometry">
                        <mxRectangle width="62" height="20" as="alternateBounds"/>
                    </mxGeometry>
                </mxCell>
                <mxCell id="fTmQCSsfnubdYVstmMUa-3" value="Value 2" style="shape=partialRectangle;html=1;whiteSpace=wrap;connectable=0;fillColor=none;top=0;left=0;bottom=0;right=0;overflow=hidden;pointerEvents=1;shadow=1;sketch=0;fontFamily=Helvetica;fontSize=17;fontColor=default;strokeWidth=4;" vertex="1" parent="fTmQCSsfnubdYVstmMUa-1">
                    <mxGeometry x="62" width="62" height="20" as="geometry">
                        <mxRectangle width="62" height="20" as="alternateBounds"/>
                    </mxGeometry>
                </mxCell>
                <mxCell id="fTmQCSsfnubdYVstmMUa-4" value="Value 3" style="shape=partialRectangle;html=1;whiteSpace=wrap;connectable=0;fillColor=none;top=0;left=0;bottom=0;right=0;overflow=hidden;pointerEvents=1;shadow=1;sketch=0;fontFamily=Helvetica;fontSize=17;fontColor=default;strokeWidth=4;" vertex="1" parent="fTmQCSsfnubdYVstmMUa-1">
                    <mxGeometry x="124" width="62" height="20" as="geometry">
                        <mxRectangle width="62" height="20" as="alternateBounds"/>
                    </mxGeometry>
                </mxCell>
                <mxCell id="fTmQCSsfnubdYVstmMUa-5" value="" style="shape=partialRectangle;html=1;whiteSpace=wrap;collapsible=0;dropTarget=0;pointerEvents=0;fillColor=none;top=0;left=0;bottom=0;right=0;points=[[0,0.5],[1,0.5]];portConstraint=eastwest;shadow=1;sketch=0;fontFamily=Helvetica;fontSize=17;fontColor=default;strokeWidth=4;" vertex="1" parent="fTmQCSsfnubdYVstmMUa-0">
                    <mxGeometry y="20" width="186" height="20" as="geometry"/>
                </mxCell>
                <mxCell id="fTmQCSsfnubdYVstmMUa-6" value="Value 4" style="shape=partialRectangle;html=1;whiteSpace=wrap;connectable=0;fillColor=none;top=0;left=0;bottom=0;right=0;overflow=hidden;pointerEvents=1;shadow=1;sketch=0;fontFamily=Helvetica;fontSize=17;fontColor=default;strokeWidth=4;" vertex="1" parent="fTmQCSsfnubdYVstmMUa-5">
                    <mxGeometry width="62" height="20" as="geometry">
                        <mxRectangle width="62" height="20" as="alternateBounds"/>
                    </mxGeometry>
                </mxCell>
                <mxCell id="fTmQCSsfnubdYVstmMUa-7" value="Value 5" style="shape=partialRectangle;html=1;whiteSpace=wrap;connectable=0;fillColor=none;top=0;left=0;bottom=0;right=0;overflow=hidden;pointerEvents=1;shadow=1;sketch=0;fontFamily=Helvetica;fontSize=17;fontColor=default;strokeWidth=4;" vertex="1" parent="fTmQCSsfnubdYVstmMUa-5">
                    <mxGeometry x="62" width="62" height="20" as="geometry">
                        <mxRectangle width="62" height="20" as="alternateBounds"/>
                    </mxGeometry>
                </mxCell>
                <mxCell id="fTmQCSsfnubdYVstmMUa-8" value="Value 6" style="shape=partialRectangle;html=1;whiteSpace=wrap;connectable=0;fillColor=none;top=0;left=0;bottom=0;right=0;overflow=hidden;pointerEvents=1;shadow=1;sketch=0;fontFamily=Helvetica;fontSize=17;fontColor=default;strokeWidth=4;" vertex="1" parent="fTmQCSsfnubdYVstmMUa-5">
                    <mxGeometry x="124" width="62" height="20" as="geometry">
                        <mxRectangle width="62" height="20" as="alternateBounds"/>
                    </mxGeometry>
                </mxCell>
                <mxCell id="fTmQCSsfnubdYVstmMUa-9" value="" style="shape=partialRectangle;html=1;whiteSpace=wrap;collapsible=0;dropTarget=0;pointerEvents=0;fillColor=none;top=0;left=0;bottom=0;right=0;points=[[0,0.5],[1,0.5]];portConstraint=eastwest;shadow=1;sketch=0;fontFamily=Helvetica;fontSize=17;fontColor=default;strokeWidth=4;" vertex="1" parent="fTmQCSsfnubdYVstmMUa-0">
                    <mxGeometry y="40" width="186" height="20" as="geometry"/>
                </mxCell>
                <mxCell id="fTmQCSsfnubdYVstmMUa-10" value="Value 7" style="shape=partialRectangle;html=1;whiteSpace=wrap;connectable=0;fillColor=none;top=0;left=0;bottom=0;right=0;overflow=hidden;pointerEvents=1;shadow=1;sketch=0;fontFamily=Helvetica;fontSize=17;fontColor=default;strokeWidth=4;" vertex="1" parent="fTmQCSsfnubdYVstmMUa-9">
                    <mxGeometry width="62" height="20" as="geometry">
                        <mxRectangle width="62" height="20" as="alternateBounds"/>
                    </mxGeometry>
                </mxCell>
                <mxCell id="fTmQCSsfnubdYVstmMUa-11" value="Value 8" style="shape=partialRectangle;html=1;whiteSpace=wrap;connectable=0;fillColor=none;top=0;left=0;bottom=0;right=0;overflow=hidden;pointerEvents=1;shadow=1;sketch=0;fontFamily=Helvetica;fontSize=17;fontColor=default;strokeWidth=4;" vertex="1" parent="fTmQCSsfnubdYVstmMUa-9">
                    <mxGeometry x="62" width="62" height="20" as="geometry">
                        <mxRectangle width="62" height="20" as="alternateBounds"/>
                    </mxGeometry>
                </mxCell>
                <mxCell id="fTmQCSsfnubdYVstmMUa-12" value="Value 9" style="shape=partialRectangle;html=1;whiteSpace=wrap;connectable=0;fillColor=none;top=0;left=0;bottom=0;right=0;overflow=hidden;pointerEvents=1;shadow=1;sketch=0;fontFamily=Helvetica;fontSize=17;fontColor=default;strokeWidth=4;" vertex="1" parent="fTmQCSsfnubdYVstmMUa-9">
                    <mxGeometry x="124" width="62" height="20" as="geometry">
                        <mxRectangle width="62" height="20" as="alternateBounds"/>
                    </mxGeometry>
                </mxCell>
                <mxCell id="fTmQCSsfnubdYVstmMUa-13" value="" style="shape=image;html=1;verticalLabelPosition=bottom;verticalAlign=top;imageAspect=1;aspect=fixed;image=img/clipart/Gear_128x128.png;shadow=1;sketch=0;pointerEvents=0;fontFamily=Helvetica;fontSize=17;fontColor=default;strokeWidth=3;fillColor=default;gradientColor=none;" vertex="1" parent="jHdx_IfH1JixQJxeTe31-1">
                    <mxGeometry x="-569" y="244" width="17.9" height="21" as="geometry"/>
                </mxCell>
                <mxCell id="fTmQCSsfnubdYVstmMUa-14" value="" style="shape=image;html=1;verticalLabelPosition=bottom;verticalAlign=top;imageAspect=1;aspect=fixed;image=img/clipart/Gear_128x128.png;shadow=1;sketch=0;pointerEvents=0;fontFamily=Helvetica;fontSize=17;fontColor=default;strokeWidth=3;fillColor=default;gradientColor=none;" vertex="1" parent="jHdx_IfH1JixQJxeTe31-1">
                    <mxGeometry x="-569" y="219.5" width="17.9" height="21" as="geometry"/>
                </mxCell>
                <mxCell id="fTmQCSsfnubdYVstmMUa-15" value="" style="shape=image;html=1;verticalLabelPosition=bottom;verticalAlign=top;imageAspect=1;aspect=fixed;image=img/clipart/Gear_128x128.png;shadow=1;sketch=0;pointerEvents=0;fontFamily=Helvetica;fontSize=17;fontColor=default;strokeWidth=3;fillColor=default;gradientColor=none;" vertex="1" parent="jHdx_IfH1JixQJxeTe31-1">
                    <mxGeometry x="-696" y="223" width="17.9" height="21" as="geometry"/>
                </mxCell>
                <mxCell id="fTmQCSsfnubdYVstmMUa-16" value="" style="shape=image;html=1;verticalLabelPosition=bottom;verticalAlign=top;imageAspect=1;aspect=fixed;image=img/clipart/Gear_128x128.png;shadow=1;sketch=0;pointerEvents=0;fontFamily=Helvetica;fontSize=17;fontColor=default;strokeWidth=3;fillColor=default;gradientColor=none;" vertex="1" parent="jHdx_IfH1JixQJxeTe31-1">
                    <mxGeometry x="-695" y="248" width="17.9" height="21" as="geometry"/>
                </mxCell>
                <mxCell id="fTmQCSsfnubdYVstmMUa-20" value="" style="edgeStyle=none;html=1;fontFamily=Helvetica;fontSize=17;fontColor=default;" edge="1" parent="jHdx_IfH1JixQJxeTe31-1" source="fTmQCSsfnubdYVstmMUa-17" target="fTmQCSsfnubdYVstmMUa-19">
                    <mxGeometry relative="1" as="geometry"/>
                </mxCell>
                <mxCell id="fTmQCSsfnubdYVstmMUa-17" value="Create a New Task Button" style="rounded=1;whiteSpace=wrap;html=1;strokeWidth=2;fillWeight=4;hachureGap=8;hachureAngle=45;fillColor=#1ba1e2;sketch=1;shadow=1;pointerEvents=0;fontFamily=Helvetica;fontSize=17;fontColor=default;" vertex="1" parent="jHdx_IfH1JixQJxeTe31-1">
                    <mxGeometry x="-799" y="410" width="180" height="90" as="geometry"/>
                </mxCell>
                <mxCell id="fTmQCSsfnubdYVstmMUa-19" value="New Task Form Modal?" style="rounded=1;whiteSpace=wrap;html=1;strokeWidth=2;fillWeight=4;hachureGap=8;hachureAngle=45;fillColor=#1ba1e2;sketch=1;shadow=1;pointerEvents=0;fontFamily=Helvetica;fontSize=17;fontColor=default;" vertex="1" parent="jHdx_IfH1JixQJxeTe31-1">
                    <mxGeometry x="-640" y="610" width="420" height="210" as="geometry"/>
                </mxCell>
                <mxCell id="MKJ8sJiEggCd-K7dQfUj-0" value="Your Face&lt;br&gt;Here" style="ellipse;whiteSpace=wrap;html=1;aspect=fixed;pointerEvents=0;fontFamily=Helvetica;fontSize=17;fontColor=default;fillColor=default;gradientColor=none;strokeWidth=4;shadow=1;sketch=0;" vertex="1" parent="jHdx_IfH1JixQJxeTe31-1">
                    <mxGeometry x="-480" y="10" width="20" height="20" as="geometry"/>
                </mxCell>
            </root>
        </mxGraphModel>
    </diagram>
    <diagram name="Task List" id="FFoZuZu9MGqms5XJFKQ9">
        <mxGraphModel dx="2347" dy="2049" grid="1" gridSize="10" guides="1" tooltips="1" connect="1" arrows="1" fold="1" page="1" pageScale="1" pageWidth="850" pageHeight="1100" math="0" shadow="0">
            <root>
                <mxCell id="1wSmdwXXebikU1Jny9p8-0"/>
                <mxCell id="1wSmdwXXebikU1Jny9p8-1" parent="1wSmdwXXebikU1Jny9p8-0"/>
                <mxCell id="1wSmdwXXebikU1Jny9p8-2" value="" style="rounded=0;whiteSpace=wrap;html=1;pointerEvents=0;fontFamily=Helvetica;fontSize=8;fontColor=#ffffff;fillColor=#76608a;strokeColor=#432D57;" vertex="1" parent="1wSmdwXXebikU1Jny9p8-1">
                    <mxGeometry x="-848" width="400" height="600" as="geometry"/>
                </mxCell>
                <mxCell id="1wSmdwXXebikU1Jny9p8-3" value="" style="group" vertex="1" connectable="0" parent="1wSmdwXXebikU1Jny9p8-1">
                    <mxGeometry x="-150" y="40" width="240" height="350" as="geometry"/>
                </mxCell>
                <mxCell id="1wSmdwXXebikU1Jny9p8-4" value="" style="rounded=0;whiteSpace=wrap;html=1;pointerEvents=0;fontFamily=Helvetica;fontSize=8;fontColor=#ffffff;fillColor=#6d8764;strokeColor=#3A5431;" vertex="1" parent="1wSmdwXXebikU1Jny9p8-1">
                    <mxGeometry x="-850" width="400" height="40" as="geometry"/>
                </mxCell>
                <mxCell id="1wSmdwXXebikU1Jny9p8-5" value="ToTask" style="text;strokeColor=none;fillColor=none;html=1;fontSize=24;fontStyle=1;verticalAlign=middle;align=center;" vertex="1" parent="1wSmdwXXebikU1Jny9p8-1">
                    <mxGeometry x="-848" width="100" height="40" as="geometry"/>
                </mxCell>
                <mxCell id="1wSmdwXXebikU1Jny9p8-7" value="Your Face&lt;br&gt;Here" style="ellipse;whiteSpace=wrap;html=1;aspect=fixed;pointerEvents=0;fontFamily=Helvetica;fontSize=17;fontColor=default;fillColor=default;gradientColor=none;strokeWidth=4;shadow=1;sketch=0;" vertex="1" parent="1wSmdwXXebikU1Jny9p8-1">
                    <mxGeometry x="-480" y="10" width="20" height="20" as="geometry"/>
                </mxCell>
                <mxCell id="1wSmdwXXebikU1Jny9p8-8" value="&lt;font style=&quot;font-size: 17px&quot;&gt;Home&lt;/font&gt;" style="text;strokeColor=none;fillColor=none;html=1;fontSize=24;fontStyle=1;verticalAlign=middle;align=center;" vertex="1" parent="1wSmdwXXebikU1Jny9p8-1">
                    <mxGeometry x="-714" y="10" width="54" height="20" as="geometry"/>
                </mxCell>
                <mxCell id="1wSmdwXXebikU1Jny9p8-9" value="&lt;font style=&quot;font-size: 17px&quot;&gt;Profile&lt;/font&gt;" style="text;strokeColor=none;fillColor=none;html=1;fontSize=24;fontStyle=1;verticalAlign=middle;align=center;" vertex="1" parent="1wSmdwXXebikU1Jny9p8-1">
                    <mxGeometry x="-657" y="10" width="54" height="20" as="geometry"/>
                </mxCell>
                <mxCell id="1wSmdwXXebikU1Jny9p8-10" value="&lt;font style=&quot;font-size: 17px&quot;&gt;Task&lt;/font&gt;" style="text;strokeColor=none;fillColor=none;html=1;fontSize=24;fontStyle=1;verticalAlign=middle;align=center;" vertex="1" parent="1wSmdwXXebikU1Jny9p8-1">
                    <mxGeometry x="-606" y="10" width="54" height="20" as="geometry"/>
                </mxCell>
                <mxCell id="1wSmdwXXebikU1Jny9p8-11" value="&lt;font style=&quot;font-size: 17px&quot;&gt;Logout&lt;/font&gt;" style="text;strokeColor=none;fillColor=none;html=1;fontSize=24;fontStyle=1;verticalAlign=middle;align=center;" vertex="1" parent="1wSmdwXXebikU1Jny9p8-1">
                    <mxGeometry x="-553" y="10" width="54" height="20" as="geometry"/>
                </mxCell>
                <mxCell id="1wSmdwXXebikU1Jny9p8-34" value="" style="edgeStyle=none;html=1;fontFamily=Helvetica;fontSize=17;fontColor=default;" edge="1" parent="1wSmdwXXebikU1Jny9p8-1" source="1wSmdwXXebikU1Jny9p8-35" target="1wSmdwXXebikU1Jny9p8-36">
                    <mxGeometry relative="1" as="geometry"/>
                </mxCell>
                <mxCell id="1wSmdwXXebikU1Jny9p8-35" value="Create a New Task Button" style="rounded=1;whiteSpace=wrap;html=1;strokeWidth=2;fillWeight=4;hachureGap=8;hachureAngle=45;fillColor=#1ba1e2;sketch=1;shadow=1;pointerEvents=0;fontFamily=Helvetica;fontSize=17;fontColor=default;" vertex="1" parent="1wSmdwXXebikU1Jny9p8-1">
                    <mxGeometry x="-830" y="60" width="100" height="50" as="geometry"/>
                </mxCell>
                <mxCell id="tA8Y1uQahDbv1nrK42q0-39" style="edgeStyle=none;html=1;fontFamily=Helvetica;fontSize=9;fontColor=default;fillColor=#FFFFFF;" edge="1" parent="1wSmdwXXebikU1Jny9p8-1" source="1wSmdwXXebikU1Jny9p8-36" target="tA8Y1uQahDbv1nrK42q0-8">
                    <mxGeometry relative="1" as="geometry"/>
                </mxCell>
                <mxCell id="1wSmdwXXebikU1Jny9p8-36" value="New Task Form Modal?" style="rounded=1;whiteSpace=wrap;html=1;strokeWidth=2;fillWeight=4;hachureGap=8;hachureAngle=45;fillColor=#1ba1e2;sketch=1;shadow=1;pointerEvents=0;fontFamily=Helvetica;fontSize=17;fontColor=default;" vertex="1" parent="1wSmdwXXebikU1Jny9p8-1">
                    <mxGeometry x="-380" y="140" width="420" height="210" as="geometry"/>
                </mxCell>
                <mxCell id="ExJJ-rQUwFz_-qRFn7WF-1" value="" style="rounded=0;whiteSpace=wrap;html=1;shadow=1;sketch=0;pointerEvents=0;fontFamily=Helvetica;fontSize=17;fontColor=default;strokeWidth=3;fillColor=default;gradientColor=none;" vertex="1" parent="1wSmdwXXebikU1Jny9p8-1">
                    <mxGeometry x="-830" y="220" width="340" height="340" as="geometry"/>
                </mxCell>
                <mxCell id="ExJJ-rQUwFz_-qRFn7WF-9" value="" style="shape=flexArrow;endArrow=classic;startArrow=classic;html=1;fontFamily=Helvetica;fontSize=17;fontColor=default;endWidth=32.326530612244895;endSize=4.965714285714285;entryX=1;entryY=0;entryDx=0;entryDy=0;exitX=1;exitY=1;exitDx=0;exitDy=0;width=7.428571428571429;startSize=4.965714285714285;fillColor=#FFFFFF;startWidth=22;" edge="1" parent="1wSmdwXXebikU1Jny9p8-1" source="ExJJ-rQUwFz_-qRFn7WF-1" target="ExJJ-rQUwFz_-qRFn7WF-1">
                    <mxGeometry width="100" height="100" relative="1" as="geometry">
                        <mxPoint x="-470" y="280" as="sourcePoint"/>
                        <mxPoint x="-370" y="180" as="targetPoint"/>
                    </mxGeometry>
                </mxCell>
                <mxCell id="tA8Y1uQahDbv1nrK42q0-0" value="" style="group" vertex="1" connectable="0" parent="1wSmdwXXebikU1Jny9p8-1">
                    <mxGeometry x="-786" y="280" width="254" height="223" as="geometry"/>
                </mxCell>
                <mxCell id="ExJJ-rQUwFz_-qRFn7WF-3" value="Un-assigned Task" style="rounded=0;whiteSpace=wrap;html=1;shadow=1;sketch=0;pointerEvents=0;fontFamily=Helvetica;fontSize=17;fontColor=default;strokeWidth=3;fillColor=default;gradientColor=none;" vertex="1" parent="tA8Y1uQahDbv1nrK42q0-0">
                    <mxGeometry width="252.19858156028369" height="30.44368600682594" as="geometry"/>
                </mxCell>
                <mxCell id="ExJJ-rQUwFz_-qRFn7WF-4" value="Task" style="rounded=0;whiteSpace=wrap;html=1;shadow=1;sketch=0;pointerEvents=0;fontFamily=Helvetica;fontSize=17;fontColor=default;strokeWidth=3;fillColor=default;gradientColor=none;" vertex="1" parent="tA8Y1uQahDbv1nrK42q0-0">
                    <mxGeometry y="47.18771331058021" width="252.19858156028369" height="30.44368600682594" as="geometry"/>
                </mxCell>
                <mxCell id="ExJJ-rQUwFz_-qRFn7WF-5" value="Task" style="rounded=0;whiteSpace=wrap;html=1;shadow=1;sketch=0;pointerEvents=0;fontFamily=Helvetica;fontSize=17;fontColor=default;strokeWidth=3;fillColor=default;gradientColor=none;" vertex="1" parent="tA8Y1uQahDbv1nrK42q0-0">
                    <mxGeometry x="1.801418439716312" y="95.13651877133105" width="252.19858156028369" height="30.44368600682594" as="geometry"/>
                </mxCell>
                <mxCell id="ExJJ-rQUwFz_-qRFn7WF-6" value="Task" style="rounded=0;whiteSpace=wrap;html=1;shadow=1;sketch=0;pointerEvents=0;fontFamily=Helvetica;fontSize=17;fontColor=default;strokeWidth=3;fillColor=default;gradientColor=none;" vertex="1" parent="tA8Y1uQahDbv1nrK42q0-0">
                    <mxGeometry x="1.801418439716312" y="143.08532423208192" width="252.19858156028369" height="30.44368600682594" as="geometry"/>
                </mxCell>
                <mxCell id="ExJJ-rQUwFz_-qRFn7WF-7" value="Task" style="rounded=0;whiteSpace=wrap;html=1;shadow=1;sketch=0;pointerEvents=0;fontFamily=Helvetica;fontSize=17;fontColor=default;strokeWidth=3;fillColor=default;gradientColor=none;" vertex="1" parent="tA8Y1uQahDbv1nrK42q0-0">
                    <mxGeometry x="1.801418439716312" y="192.55631399317406" width="252.19858156028369" height="30.44368600682594" as="geometry"/>
                </mxCell>
                <mxCell id="HI9RLjszvTcwR2XzjMvn-0" value="" style="shape=image;html=1;verticalLabelPosition=bottom;verticalAlign=top;imageAspect=1;aspect=fixed;image=img/clipart/Gear_128x128.png;shadow=1;sketch=0;pointerEvents=0;fontFamily=Helvetica;fontSize=9;fontColor=default;strokeWidth=3;fillColor=default;gradientColor=none;" vertex="1" parent="tA8Y1uQahDbv1nrK42q0-0">
                    <mxGeometry x="226" y="3.25" width="23.18" height="27.19" as="geometry"/>
                </mxCell>
                <mxCell id="tA8Y1uQahDbv1nrK42q0-1" value="Search?" style="rounded=1;whiteSpace=wrap;html=1;shadow=1;sketch=0;pointerEvents=0;fontFamily=Helvetica;fontSize=17;fontColor=default;strokeWidth=3;fillColor=default;gradientColor=none;" vertex="1" parent="1wSmdwXXebikU1Jny9p8-1">
                    <mxGeometry x="-830" y="160" width="214" height="20" as="geometry"/>
                </mxCell>
                <mxCell id="tA8Y1uQahDbv1nrK42q0-2" value="&lt;font style=&quot;font-size: 9px&quot;&gt;Task Filter&lt;/font&gt;" style="rounded=1;whiteSpace=wrap;html=1;shadow=1;sketch=0;pointerEvents=0;fontFamily=Helvetica;fontSize=17;fontColor=default;strokeWidth=3;fillColor=default;gradientColor=none;" vertex="1" parent="1wSmdwXXebikU1Jny9p8-1">
                    <mxGeometry x="-610" y="160" width="50" height="20" as="geometry"/>
                </mxCell>
                <mxCell id="tA8Y1uQahDbv1nrK42q0-7" style="edgeStyle=none;html=1;entryX=0.5;entryY=0;entryDx=0;entryDy=0;fontFamily=Helvetica;fontSize=9;fontColor=default;fillColor=#FFFFFF;" edge="1" parent="1wSmdwXXebikU1Jny9p8-1" source="tA8Y1uQahDbv1nrK42q0-3" target="ExJJ-rQUwFz_-qRFn7WF-1">
                    <mxGeometry relative="1" as="geometry"/>
                </mxCell>
                <mxCell id="tA8Y1uQahDbv1nrK42q0-3" value="My Tasks" style="rounded=1;whiteSpace=wrap;html=1;strokeWidth=2;fillWeight=4;hachureGap=8;hachureAngle=45;fillColor=#1ba1e2;sketch=1;shadow=1;pointerEvents=0;fontFamily=Helvetica;fontSize=17;fontColor=default;" vertex="1" parent="1wSmdwXXebikU1Jny9p8-1">
                    <mxGeometry x="-709" y="60" width="100" height="50" as="geometry"/>
                </mxCell>
                <mxCell id="tA8Y1uQahDbv1nrK42q0-5" style="edgeStyle=none;html=1;entryX=0.75;entryY=0;entryDx=0;entryDy=0;fontFamily=Helvetica;fontSize=9;fontColor=default;fillColor=#FFFFFF;" edge="1" parent="1wSmdwXXebikU1Jny9p8-1" source="tA8Y1uQahDbv1nrK42q0-4" target="tA8Y1uQahDbv1nrK42q0-1">
                    <mxGeometry relative="1" as="geometry"/>
                </mxCell>
                <mxCell id="tA8Y1uQahDbv1nrK42q0-6" style="edgeStyle=none;html=1;exitX=0.75;exitY=1;exitDx=0;exitDy=0;fontFamily=Helvetica;fontSize=9;fontColor=default;fillColor=#FFFFFF;" edge="1" parent="1wSmdwXXebikU1Jny9p8-1" source="tA8Y1uQahDbv1nrK42q0-4" target="ExJJ-rQUwFz_-qRFn7WF-1">
                    <mxGeometry relative="1" as="geometry"/>
                </mxCell>
                <mxCell id="tA8Y1uQahDbv1nrK42q0-4" value="Find a Task&amp;nbsp;" style="rounded=1;whiteSpace=wrap;html=1;strokeWidth=2;fillWeight=4;hachureGap=8;hachureAngle=45;fillColor=#1ba1e2;sketch=1;shadow=1;pointerEvents=0;fontFamily=Helvetica;fontSize=17;fontColor=default;" vertex="1" parent="1wSmdwXXebikU1Jny9p8-1">
                    <mxGeometry x="-590" y="60" width="100" height="50" as="geometry"/>
                </mxCell>
                <mxCell id="tA8Y1uQahDbv1nrK42q0-25" value="Calendar" style="shape=table;startSize=30;container=1;collapsible=0;childLayout=tableLayout;fontStyle=1;align=center;pointerEvents=1;shadow=1;sketch=0;fontFamily=Helvetica;fontSize=9;fontColor=default;strokeWidth=3;fillColor=default;gradientColor=none;" vertex="1" parent="1wSmdwXXebikU1Jny9p8-1">
                    <mxGeometry y="1050" width="432" height="360" as="geometry"/>
                </mxCell>
                <mxCell id="tA8Y1uQahDbv1nrK42q0-26" value="" style="shape=partialRectangle;html=1;whiteSpace=wrap;collapsible=0;dropTarget=0;pointerEvents=0;fillColor=none;top=0;left=0;bottom=0;right=0;points=[[0,0.5],[1,0.5]];portConstraint=eastwest;shadow=1;sketch=0;fontFamily=Helvetica;fontSize=9;fontColor=default;strokeWidth=3;" vertex="1" parent="tA8Y1uQahDbv1nrK42q0-25">
                    <mxGeometry y="30" width="432" height="110" as="geometry"/>
                </mxCell>
                <mxCell id="tA8Y1uQahDbv1nrK42q0-27" value="" style="shape=partialRectangle;html=1;whiteSpace=wrap;connectable=0;fillColor=none;top=0;left=0;bottom=0;right=0;overflow=hidden;pointerEvents=1;shadow=1;sketch=0;fontFamily=Helvetica;fontSize=9;fontColor=default;strokeWidth=3;" vertex="1" parent="tA8Y1uQahDbv1nrK42q0-26">
                    <mxGeometry width="144" height="110" as="geometry">
                        <mxRectangle width="144" height="110" as="alternateBounds"/>
                    </mxGeometry>
                </mxCell>
                <mxCell id="tA8Y1uQahDbv1nrK42q0-28" value="" style="shape=partialRectangle;html=1;whiteSpace=wrap;connectable=0;fillColor=none;top=0;left=0;bottom=0;right=0;overflow=hidden;pointerEvents=1;shadow=1;sketch=0;fontFamily=Helvetica;fontSize=9;fontColor=default;strokeWidth=3;" vertex="1" parent="tA8Y1uQahDbv1nrK42q0-26">
                    <mxGeometry x="144" width="144" height="110" as="geometry">
                        <mxRectangle width="144" height="110" as="alternateBounds"/>
                    </mxGeometry>
                </mxCell>
                <mxCell id="tA8Y1uQahDbv1nrK42q0-29" value="" style="shape=partialRectangle;html=1;whiteSpace=wrap;connectable=0;fillColor=none;top=0;left=0;bottom=0;right=0;overflow=hidden;pointerEvents=1;shadow=1;sketch=0;fontFamily=Helvetica;fontSize=9;fontColor=default;strokeWidth=3;" vertex="1" parent="tA8Y1uQahDbv1nrK42q0-26">
                    <mxGeometry x="288" width="144" height="110" as="geometry">
                        <mxRectangle width="144" height="110" as="alternateBounds"/>
                    </mxGeometry>
                </mxCell>
                <mxCell id="tA8Y1uQahDbv1nrK42q0-30" value="" style="shape=partialRectangle;html=1;whiteSpace=wrap;collapsible=0;dropTarget=0;pointerEvents=0;fillColor=none;top=0;left=0;bottom=0;right=0;points=[[0,0.5],[1,0.5]];portConstraint=eastwest;shadow=1;sketch=0;fontFamily=Helvetica;fontSize=9;fontColor=default;strokeWidth=3;" vertex="1" parent="tA8Y1uQahDbv1nrK42q0-25">
                    <mxGeometry y="140" width="432" height="110" as="geometry"/>
                </mxCell>
                <mxCell id="tA8Y1uQahDbv1nrK42q0-31" value="" style="shape=partialRectangle;html=1;whiteSpace=wrap;connectable=0;fillColor=none;top=0;left=0;bottom=0;right=0;overflow=hidden;pointerEvents=1;shadow=1;sketch=0;fontFamily=Helvetica;fontSize=9;fontColor=default;strokeWidth=3;" vertex="1" parent="tA8Y1uQahDbv1nrK42q0-30">
                    <mxGeometry width="144" height="110" as="geometry">
                        <mxRectangle width="144" height="110" as="alternateBounds"/>
                    </mxGeometry>
                </mxCell>
                <mxCell id="tA8Y1uQahDbv1nrK42q0-32" value="" style="shape=partialRectangle;html=1;whiteSpace=wrap;connectable=0;fillColor=none;top=0;left=0;bottom=0;right=0;overflow=hidden;pointerEvents=1;shadow=1;sketch=0;fontFamily=Helvetica;fontSize=9;fontColor=default;strokeWidth=3;" vertex="1" parent="tA8Y1uQahDbv1nrK42q0-30">
                    <mxGeometry x="144" width="144" height="110" as="geometry">
                        <mxRectangle width="144" height="110" as="alternateBounds"/>
                    </mxGeometry>
                </mxCell>
                <mxCell id="tA8Y1uQahDbv1nrK42q0-33" value="" style="shape=partialRectangle;html=1;whiteSpace=wrap;connectable=0;fillColor=none;top=0;left=0;bottom=0;right=0;overflow=hidden;pointerEvents=1;shadow=1;sketch=0;fontFamily=Helvetica;fontSize=9;fontColor=default;strokeWidth=3;" vertex="1" parent="tA8Y1uQahDbv1nrK42q0-30">
                    <mxGeometry x="288" width="144" height="110" as="geometry">
                        <mxRectangle width="144" height="110" as="alternateBounds"/>
                    </mxGeometry>
                </mxCell>
                <mxCell id="tA8Y1uQahDbv1nrK42q0-34" value="" style="shape=partialRectangle;html=1;whiteSpace=wrap;collapsible=0;dropTarget=0;pointerEvents=0;fillColor=none;top=0;left=0;bottom=0;right=0;points=[[0,0.5],[1,0.5]];portConstraint=eastwest;shadow=1;sketch=0;fontFamily=Helvetica;fontSize=9;fontColor=default;strokeWidth=3;" vertex="1" parent="tA8Y1uQahDbv1nrK42q0-25">
                    <mxGeometry y="250" width="432" height="110" as="geometry"/>
                </mxCell>
                <mxCell id="tA8Y1uQahDbv1nrK42q0-35" value="" style="shape=partialRectangle;html=1;whiteSpace=wrap;connectable=0;fillColor=none;top=0;left=0;bottom=0;right=0;overflow=hidden;pointerEvents=1;shadow=1;sketch=0;fontFamily=Helvetica;fontSize=9;fontColor=default;strokeWidth=3;" vertex="1" parent="tA8Y1uQahDbv1nrK42q0-34">
                    <mxGeometry width="144" height="110" as="geometry">
                        <mxRectangle width="144" height="110" as="alternateBounds"/>
                    </mxGeometry>
                </mxCell>
                <mxCell id="tA8Y1uQahDbv1nrK42q0-36" value="" style="shape=partialRectangle;html=1;whiteSpace=wrap;connectable=0;fillColor=none;top=0;left=0;bottom=0;right=0;overflow=hidden;pointerEvents=1;shadow=1;sketch=0;fontFamily=Helvetica;fontSize=9;fontColor=default;strokeWidth=3;" vertex="1" parent="tA8Y1uQahDbv1nrK42q0-34">
                    <mxGeometry x="144" width="144" height="110" as="geometry">
                        <mxRectangle width="144" height="110" as="alternateBounds"/>
                    </mxGeometry>
                </mxCell>
                <mxCell id="tA8Y1uQahDbv1nrK42q0-37" value="" style="shape=partialRectangle;html=1;whiteSpace=wrap;connectable=0;fillColor=none;top=0;left=0;bottom=0;right=0;overflow=hidden;pointerEvents=1;shadow=1;sketch=0;fontFamily=Helvetica;fontSize=9;fontColor=default;strokeWidth=3;" vertex="1" parent="tA8Y1uQahDbv1nrK42q0-34">
                    <mxGeometry x="288" width="144" height="110" as="geometry">
                        <mxRectangle width="144" height="110" as="alternateBounds"/>
                    </mxGeometry>
                </mxCell>
                <mxCell id="tA8Y1uQahDbv1nrK42q0-38" style="edgeStyle=none;html=1;entryX=0.25;entryY=0;entryDx=0;entryDy=0;fontFamily=Helvetica;fontSize=9;fontColor=default;fillColor=#FFFFFF;" edge="1" parent="1wSmdwXXebikU1Jny9p8-1" source="tA8Y1uQahDbv1nrK42q0-23" target="tA8Y1uQahDbv1nrK42q0-25">
                    <mxGeometry relative="1" as="geometry"/>
                </mxCell>
                <mxCell id="tA8Y1uQahDbv1nrK42q0-40" value="" style="group" vertex="1" connectable="0" parent="1wSmdwXXebikU1Jny9p8-1">
                    <mxGeometry x="-360" y="540" width="958" height="479" as="geometry"/>
                </mxCell>
                <mxCell id="tA8Y1uQahDbv1nrK42q0-8" value="" style="rounded=1;whiteSpace=wrap;html=1;strokeWidth=2;fillWeight=4;hachureGap=8;hachureAngle=45;fillColor=#1ba1e2;sketch=1;shadow=1;pointerEvents=0;fontFamily=Helvetica;fontSize=17;fontColor=default;" vertex="1" parent="tA8Y1uQahDbv1nrK42q0-40">
                    <mxGeometry width="958" height="479" as="geometry"/>
                </mxCell>
                <mxCell id="tA8Y1uQahDbv1nrK42q0-14" value="" style="group" vertex="1" connectable="0" parent="tA8Y1uQahDbv1nrK42q0-40">
                    <mxGeometry x="39" y="109" width="611" height="40" as="geometry"/>
                </mxCell>
                <mxCell id="tA8Y1uQahDbv1nrK42q0-9" value="" style="rounded=1;whiteSpace=wrap;html=1;shadow=1;sketch=0;pointerEvents=0;fontFamily=Helvetica;fontSize=9;fontColor=default;strokeWidth=3;fillColor=default;gradientColor=none;" vertex="1" parent="tA8Y1uQahDbv1nrK42q0-14">
                    <mxGeometry x="121" width="490" height="40" as="geometry"/>
                </mxCell>
                <mxCell id="tA8Y1uQahDbv1nrK42q0-10" value="Task Name" style="text;strokeColor=none;fillColor=none;html=1;fontSize=24;fontStyle=1;verticalAlign=middle;align=center;shadow=1;sketch=0;pointerEvents=0;fontFamily=Helvetica;fontColor=default;" vertex="1" parent="tA8Y1uQahDbv1nrK42q0-14">
                    <mxGeometry width="100" height="40" as="geometry"/>
                </mxCell>
                <mxCell id="tA8Y1uQahDbv1nrK42q0-16" value="" style="group" vertex="1" connectable="0" parent="tA8Y1uQahDbv1nrK42q0-40">
                    <mxGeometry x="39" y="189" width="611" height="40" as="geometry"/>
                </mxCell>
                <mxCell id="tA8Y1uQahDbv1nrK42q0-17" value="" style="rounded=1;whiteSpace=wrap;html=1;shadow=1;sketch=0;pointerEvents=0;fontFamily=Helvetica;fontSize=9;fontColor=default;strokeWidth=3;fillColor=default;gradientColor=none;" vertex="1" parent="tA8Y1uQahDbv1nrK42q0-16">
                    <mxGeometry x="121" width="490" height="40" as="geometry"/>
                </mxCell>
                <mxCell id="tA8Y1uQahDbv1nrK42q0-18" value="Task Tag" style="text;strokeColor=none;fillColor=none;html=1;fontSize=24;fontStyle=1;verticalAlign=middle;align=center;shadow=1;sketch=0;pointerEvents=0;fontFamily=Helvetica;fontColor=default;" vertex="1" parent="tA8Y1uQahDbv1nrK42q0-16">
                    <mxGeometry width="100" height="40" as="geometry"/>
                </mxCell>
                <mxCell id="tA8Y1uQahDbv1nrK42q0-19" value="" style="group" vertex="1" connectable="0" parent="tA8Y1uQahDbv1nrK42q0-40">
                    <mxGeometry x="39" y="259" width="611" height="40" as="geometry"/>
                </mxCell>
                <mxCell id="tA8Y1uQahDbv1nrK42q0-20" value="" style="rounded=1;whiteSpace=wrap;html=1;shadow=1;sketch=0;pointerEvents=0;fontFamily=Helvetica;fontSize=9;fontColor=default;strokeWidth=3;fillColor=default;gradientColor=none;" vertex="1" parent="tA8Y1uQahDbv1nrK42q0-19">
                    <mxGeometry x="121" width="490" height="40" as="geometry"/>
                </mxCell>
                <mxCell id="tA8Y1uQahDbv1nrK42q0-21" value="Value" style="text;strokeColor=none;fillColor=none;html=1;fontSize=24;fontStyle=1;verticalAlign=middle;align=center;shadow=1;sketch=0;pointerEvents=0;fontFamily=Helvetica;fontColor=default;" vertex="1" parent="tA8Y1uQahDbv1nrK42q0-19">
                    <mxGeometry width="100" height="40" as="geometry"/>
                </mxCell>
                <mxCell id="tA8Y1uQahDbv1nrK42q0-22" value="" style="group" vertex="1" connectable="0" parent="tA8Y1uQahDbv1nrK42q0-40">
                    <mxGeometry x="39" y="329" width="611" height="40" as="geometry"/>
                </mxCell>
                <mxCell id="tA8Y1uQahDbv1nrK42q0-23" value="" style="rounded=1;whiteSpace=wrap;html=1;shadow=1;sketch=0;pointerEvents=0;fontFamily=Helvetica;fontSize=9;fontColor=default;strokeWidth=3;fillColor=default;gradientColor=none;" vertex="1" parent="tA8Y1uQahDbv1nrK42q0-22">
                    <mxGeometry x="121" width="490" height="40" as="geometry"/>
                </mxCell>
                <mxCell id="tA8Y1uQahDbv1nrK42q0-24" value="Due Date" style="text;strokeColor=none;fillColor=none;html=1;fontSize=24;fontStyle=1;verticalAlign=middle;align=center;shadow=1;sketch=0;pointerEvents=0;fontFamily=Helvetica;fontColor=default;" vertex="1" parent="tA8Y1uQahDbv1nrK42q0-22">
                    <mxGeometry width="100" height="40" as="geometry"/>
                </mxCell>
                <mxCell id="HI9RLjszvTcwR2XzjMvn-3" value="" style="group" vertex="1" connectable="0" parent="tA8Y1uQahDbv1nrK42q0-40">
                    <mxGeometry x="48" y="400" width="611" height="40" as="geometry"/>
                </mxCell>
                <mxCell id="HI9RLjszvTcwR2XzjMvn-4" value="" style="rounded=1;whiteSpace=wrap;html=1;shadow=1;sketch=0;pointerEvents=0;fontFamily=Helvetica;fontSize=9;fontColor=default;strokeWidth=3;fillColor=default;gradientColor=none;" vertex="1" parent="HI9RLjszvTcwR2XzjMvn-3">
                    <mxGeometry x="121" width="490" height="40" as="geometry"/>
                </mxCell>
                <mxCell id="HI9RLjszvTcwR2XzjMvn-5" value="Assign Do-er" style="text;strokeColor=none;fillColor=none;html=1;fontSize=24;fontStyle=1;verticalAlign=middle;align=center;shadow=1;sketch=0;pointerEvents=0;fontFamily=Helvetica;fontColor=default;" vertex="1" parent="HI9RLjszvTcwR2XzjMvn-3">
                    <mxGeometry width="100" height="40" as="geometry"/>
                </mxCell>
                <mxCell id="HI9RLjszvTcwR2XzjMvn-6" value="&lt;ul style=&quot;font-size: 12px&quot;&gt;&lt;li&gt;&lt;br&gt;&lt;/li&gt;&lt;/ul&gt;" style="text;strokeColor=none;fillColor=none;html=1;whiteSpace=wrap;verticalAlign=middle;overflow=hidden;shadow=1;sketch=0;pointerEvents=0;fontFamily=Helvetica;fontSize=9;fontColor=default;" vertex="1" parent="1wSmdwXXebikU1Jny9p8-1">
                    <mxGeometry x="-290" y="-270" width="460" height="370" as="geometry"/>
                </mxCell>
            </root>
        </mxGraphModel>
    </diagram>
</mxfile>